<svg width="15" height="15" viewBox="0 0 15 15" fill="none" xmlns="http://www.w3.org/2000/svg">
<path d="M13.4913 2.15039C13.1837 2.24707 13.1719 2.25586 9.25787 6.16992L5.40533 10.0195L3.66217 8.27637C2.04205 6.66211 1.90435 6.53028 1.72271 6.44532C1.25689 6.22852 0.761775 6.2959 0.392635 6.62989C0.0996661 6.89356 -0.0438886 7.31543 0.0264239 7.69629C0.0996661 8.08887 0.0527911 8.03907 2.48443 10.4619C4.61138 12.583 4.74322 12.709 4.92193 12.7881C5.15045 12.8877 5.46392 12.917 5.67486 12.8613C6.03228 12.7647 5.87994 12.9082 10.4473 8.34082C15.1758 3.60645 14.9063 3.89649 14.9795 3.47754C15.0792 2.89453 14.7129 2.3291 14.1241 2.15039C13.96 2.10059 13.6495 2.10059 13.4913 2.15039Z" fill="#00A925"/>
</svg>
