<svg width="15" height="16" viewBox="0 0 15 16" fill="none" xmlns="http://www.w3.org/2000/svg">
<g clip-path="url(#clip0_1_108)">
<path d="M14.206 15.7162C14.5107 15.6546 14.7744 15.4362 14.9062 15.1409C14.9707 14.9963 14.9853 14.9225 14.9853 14.7195C14.9853 14.2427 15.1845 14.4795 11.8359 10.9666L8.87692 7.85962L11.8623 4.72192C14.2851 2.17178 14.8564 1.55654 14.9121 1.43042C15.0117 1.21201 15.0146 0.818262 14.9179 0.599854C14.833 0.406055 14.6455 0.203028 14.458 0.098438C14.247 -0.0153804 13.9101 -0.0307612 13.667 0.0615239C13.497 0.1292 13.3916 0.233789 10.4941 3.27305L7.49996 6.41382L4.51754 3.28843C2.12399 0.778272 1.50875 0.147657 1.39156 0.0892095C1.26852 0.027686 1.20113 0.0153814 0.966759 0.0153814C0.723595 0.0153814 0.67086 0.027686 0.541954 0.098438C0.360313 0.196875 0.164024 0.415284 0.0790634 0.609083C-0.0146866 0.818262 -0.00882721 1.21509 0.0878525 1.43042C0.143517 1.55654 0.714806 2.17178 3.13766 4.72192L6.12301 7.85962L3.16402 10.9666C-0.184608 14.4795 0.0146103 14.2427 0.0146103 14.7195C0.0146103 14.9194 0.0292587 14.9963 0.0907822 15.1348C0.328087 15.6639 0.922813 15.8792 1.42086 15.6208C1.49703 15.5808 2.56637 14.4826 4.51754 12.4339L7.49996 9.30542L10.4795 12.4339C12.4336 14.4826 13.5029 15.5808 13.5791 15.6208C13.6787 15.6731 14.0039 15.7592 14.0595 15.7469C14.0683 15.7438 14.1357 15.7315 14.206 15.7162Z" fill="#FF0000" fill-opacity="0.5"/>
</g>
<defs>
<clipPath id="clip0_1_108">
<rect width="15" height="15.75" fill="white" transform="matrix(-1 0 0 -1 15 15.75)"/>
</clipPath>
</defs>
</svg>
