<svg width="208" height="148" viewBox="0 0 208 148" fill="none" xmlns="http://www.w3.org/2000/svg">
<path d="M19 1H189C196.732 1 203 7.26801 203 15V125C203 132.732 196.732 139 189 139H19C11.268 139 5 132.732 5 125V15C5 7.26801 11.268 1 19 1Z" fill="#ADADAD" stroke="#616161" stroke-width="2"/>
<path d="M28 18.0992H180C187.732 18.0992 194 24.3673 194 32.0992V119.656C194 127.388 187.732 133.656 180 133.656H28C20.268 133.656 14 127.388 14 119.656V32.0993C14 24.3673 20.268 18.0992 28 18.0992Z" fill="white" stroke="white" stroke-width="2"/>
<g filter="url(#filter0_d_134_19)">
<path d="M4 35.2672H189C197.284 35.2672 204 41.9829 204 50.2672V125C204 133.284 197.284 140 189 140H19C10.7157 140 4 133.284 4 125V35.2672Z" fill="#D9D9D9"/>
<path d="M5 36.2672H189C196.732 36.2672 203 42.5352 203 50.2672V125C203 132.732 196.732 139 189 139H19C11.268 139 5 132.732 5 125V36.2672Z" stroke="#616161" stroke-width="2"/>
</g>
<circle cx="178" cy="114" r="16" fill="#616161"/>
<circle cx="178" cy="114" r="12" fill="white"/>
<defs>
<filter id="filter0_d_134_19" x="0" y="35.2672" width="208" height="112.733" filterUnits="userSpaceOnUse" color-interpolation-filters="sRGB">
<feFlood flood-opacity="0" result="BackgroundImageFix"/>
<feColorMatrix in="SourceAlpha" type="matrix" values="0 0 0 0 0 0 0 0 0 0 0 0 0 0 0 0 0 0 127 0" result="hardAlpha"/>
<feOffset dy="4"/>
<feGaussianBlur stdDeviation="2"/>
<feComposite in2="hardAlpha" operator="out"/>
<feColorMatrix type="matrix" values="0 0 0 0 0 0 0 0 0 0 0 0 0 0 0 0 0 0 0.25 0"/>
<feBlend mode="normal" in2="BackgroundImageFix" result="effect1_dropShadow_134_19"/>
<feBlend mode="normal" in="SourceGraphic" in2="effect1_dropShadow_134_19" result="shape"/>
</filter>
</defs>
</svg>
