<svg width="121" height="86" viewBox="0 0 121 86" fill="none" xmlns="http://www.w3.org/2000/svg">
<g clip-path="url(#clip0_1_757)">
<path d="M11.4616 1.07541H109.538C113.999 1.07541 117.615 4.68211 117.615 9.13121V72.4268C117.615 76.8759 113.999 80.4826 109.538 80.4826H11.4616C7.0008 80.4826 3.38464 76.8759 3.38464 72.4268V9.13121C3.38464 4.68211 7.0008 1.07541 11.4616 1.07541Z" fill="#D6C954" stroke="#616161" stroke-width="2"/>
<path d="M16.6538 10.9146H104.346C108.807 10.9146 112.423 14.5213 112.423 18.9704V69.3518C112.423 73.8009 108.807 77.4076 104.346 77.4076H16.6538C12.1931 77.4076 8.5769 73.8009 8.5769 69.3518V18.9704C8.5769 14.5213 12.1931 10.9146 16.6538 10.9146Z" fill="white" stroke="white" stroke-width="2"/>
<g filter="url(#filter0_d_1_757)">
<path d="M2.80768 20.7932H109.538C114.318 20.7932 118.192 24.6576 118.192 29.4245V72.4268C118.192 77.1935 114.318 81.058 109.538 81.058H11.4615C6.68212 81.058 2.80768 77.1935 2.80768 72.4268V20.7932Z" fill="#FFF065"/>
<path d="M3.38458 21.3687H109.538C113.999 21.3687 117.615 24.9753 117.615 29.4244V72.4268C117.615 76.8759 113.999 80.4826 109.538 80.4826H11.4615C7.00074 80.4826 3.38458 76.8759 3.38458 72.4268V21.3687Z" fill="#FFF065" stroke="#616161" stroke-width="2"/>
</g>
</g>
<defs>
<filter id="filter0_d_1_757" x="-1.61542" y="20.3687" width="124.231" height="69.1139" filterUnits="userSpaceOnUse" color-interpolation-filters="sRGB">
<feFlood flood-opacity="0" result="BackgroundImageFix"/>
<feColorMatrix in="SourceAlpha" type="matrix" values="0 0 0 0 0 0 0 0 0 0 0 0 0 0 0 0 0 0 127 0" result="hardAlpha"/>
<feOffset dy="4"/>
<feGaussianBlur stdDeviation="2"/>
<feComposite in2="hardAlpha" operator="out"/>
<feColorMatrix type="matrix" values="0 0 0 0 0 0 0 0 0 0 0 0 0 0 0 0 0 0 0.25 0"/>
<feBlend mode="normal" in2="BackgroundImageFix" result="effect1_dropShadow_1_757"/>
<feBlend mode="normal" in="SourceGraphic" in2="effect1_dropShadow_1_757" result="shape"/>
</filter>
<clipPath id="clip0_1_757">
<rect width="120" height="85.1613" fill="white" transform="translate(0.5 0.5)"/>
</clipPath>
</defs>
</svg>
