<svg width="20" height="20" viewBox="0 0 20 20" fill="none" xmlns="http://www.w3.org/2000/svg">
<g clip-path="url(#clip0_1_122)">
<rect width="20" height="20" fill="white"/>
<path d="M9.48828 0.0507812C9.26953 0.113281 8.98047 0.320312 8.85156 0.503906C8.625 0.832031 8.63281 0.640625 8.63281 4.88672V8.78906H4.92969C2.45312 8.78906 1.14844 8.80469 0.992187 8.83203C0.398437 8.9375 0.0195312 9.39062 0.0195312 10C0.0195312 10.6094 0.398437 11.0625 0.992187 11.168C1.14844 11.1953 2.45312 11.2109 4.92969 11.2109H8.63281L8.64062 15.1445L8.65234 19.082L8.74219 19.2773C8.94922 19.7227 9.34375 19.9766 9.84375 19.9805C10.3477 19.9805 10.707 19.7422 10.9336 19.2578L11.0352 19.043L11.0469 15.125L11.0586 11.2109H14.918C17.5039 11.2109 18.8516 11.1953 19.0078 11.168C20.0742 10.9766 20.3516 9.60938 19.4453 9C19.3242 8.91797 19.1758 8.85938 19.0117 8.83203C18.8281 8.80078 17.6797 8.79688 14.8867 8.81641L11.0156 8.83984V4.91016C11.0156 1.0625 11.0156 0.976562 10.9375 0.769531C10.8437 0.519531 10.5977 0.253906 10.3398 0.125C10.1211 0.015625 9.73437 -0.0195312 9.48828 0.0507812Z" fill="#04B700" fill-opacity="0.5"/>
</g>
<defs>
<clipPath id="clip0_1_122">
<rect width="20" height="20" fill="white"/>
</clipPath>
</defs>
</svg>
