<svg width="800" height="800" viewBox="0 0 800 800" fill="none" xmlns="http://www.w3.org/2000/svg">
<g clip-path="url(#clip0_59_7)">
<path d="M766.185 372.105C747.561 372.105 732.205 385.665 732.205 404.452C730.571 526.813 659.997 637.412 552.012 696.713C389.299 786.075 199.142 705.862 126.28 597.06L229.038 618.461C246.028 621.892 264.651 611.6 268.082 592.976C271.513 575.986 261.221 557.362 242.597 553.932L40.5131 511.456C28.7508 508.679 -2.1254 517.174 1.46865 548.867L26.9537 752.748C28.5874 769.738 42.3101 781.664 59.3002 781.664C84.6219 781.664 94.914 763.04 93.2803 744.253L81.3546 644.763C246.518 842.926 456.116 815.317 582.561 757.976C713.418 688.218 796.734 554.095 798.368 406.085C798.531 387.462 784.809 372.105 766.185 372.105Z" fill="black"/>
<path d="M33.6518 427.813C52.2755 427.813 67.6319 414.254 67.6319 395.467C69.2655 273.105 139.84 162.507 247.825 103.205C410.537 13.8436 600.695 94.0564 673.556 202.858L570.799 181.457C553.809 178.026 535.185 188.319 531.755 206.942C528.324 223.932 538.616 242.556 557.24 245.987L759.487 288.462C771.249 291.239 802.125 282.744 798.531 251.051L773.046 47.1703C771.413 30.1802 757.69 18.2545 740.7 18.2545C715.378 18.2545 705.086 36.8782 706.72 55.6653L718.482 155.155C553.319 -42.8444 343.72 -15.3989 217.275 42.106C86.419 111.7 3.10232 245.987 1.3053 393.833C1.3053 412.62 15.028 427.813 33.6518 427.813Z" fill="black"/>
</g>
<defs>
<clipPath id="clip0_59_7">
<rect width="800" height="800" fill="white"/>
</clipPath>
</defs>
</svg>
