<svg width="683" height="683" viewBox="0 0 683 683" fill="none" xmlns="http://www.w3.org/2000/svg">
<g clip-path="url(#clip0_408_16)">
<path d="M272.933 1.46676C256.4 5.46676 240.8 19.3334 235.333 34.8001C234.133 37.8668 231.6 50.6668 229.466 63.3334C224.266 94.0001 219.6 102.8 204.266 110.267C198.133 113.2 195.066 113.867 187.333 113.867C179.2 113.733 175.333 112.667 156 105.2C134.133 96.8001 134 96.8001 120 96.6668C107.066 96.6668 105.333 96.9334 97.333 100.8C92.533 103.067 85.9996 107.6 82.6663 111.067C75.5996 118.267 16.9329 218.667 12.9329 230.667C9.46628 240.8 10.3996 256.933 14.9329 266.933C19.8663 277.333 24.6663 282.667 43.5996 298.133C52.933 305.867 61.9996 314 63.7329 316C75.1996 330.533 75.4663 351.733 64.1329 366.133C62.6663 368 53.4663 376.133 43.733 384.267C24.3996 400.133 20.1329 404.933 15.0663 415.733C10.3996 425.733 9.46628 441.867 12.7996 452C14.2663 456 29.0663 483.2 45.9996 512.4C79.333 570.267 82.6663 574.8 97.333 581.867C105.333 585.733 107.066 586 120 586C134 585.867 134.133 585.867 156 577.467C175.333 570 179.2 568.933 187.333 568.8C202.933 568.667 215.466 576.533 222.8 590.933C224.533 594.267 227.066 605.333 229.466 619.333C233.733 645.067 235.466 650.8 241.2 659.2C246.8 667.333 253.866 673.067 264 677.867L272.666 682L337.2 682.4C378 682.667 404.133 682.267 408.266 681.467C424.4 678 437.333 667.867 444.666 652.933C448.4 645.067 450 639.067 453.2 619.867C457.466 593.733 460.4 586 468.8 578.667C476.8 571.733 484.533 568.8 495.333 568.933C503.6 568.933 507.333 570 526.666 577.467C548.533 585.867 548.666 585.867 562.666 586C575.6 586 577.333 585.733 585.333 581.867C599.866 574.8 603.333 570.133 636.4 513.067C652.933 484.267 667.6 458.267 668.933 455.333C670.666 451.467 671.2 446.4 671.333 436.667C671.333 425.067 670.933 422.4 667.866 416C662.666 405.2 658.266 400.267 638.533 384C619.466 368.133 614.533 362.133 611.333 351.6C608.8 343.2 608.8 339.467 611.333 331.067C614.533 320.4 619.733 314.133 638.533 298.667C658 282.667 662.666 277.467 667.866 266.667C670.933 260.267 671.333 257.6 671.333 246C671.2 236.267 670.666 231.2 668.933 227.333C667.6 224.4 652.933 198.4 636.4 169.6C603.333 112.533 599.866 107.867 585.333 100.8C577.333 96.9334 575.6 96.6668 562.666 96.6668C548.666 96.8001 548.533 96.8001 526.666 105.2C507.333 112.667 503.466 113.733 495.333 113.867C479.733 114 467.2 106.133 459.866 91.7334C458.266 88.5334 455.6 77.3334 453.2 63.6001C451.2 51.0668 448.4 38.0001 447.066 34.4001C442.533 21.6001 429.866 8.93343 416.4 3.33343C410.4 0.800095 406.266 0.666761 344 0.400095C307.733 0.266761 275.733 0.800095 272.933 1.46676ZM397.333 53.6001C397.333 53.8668 399.066 64.2668 401.333 76.9334C407.066 110 413.6 124.4 430.533 140.8C449.333 159.2 476.666 169.333 501.333 167.333C514.266 166.267 517.866 165.333 542.4 156.4C553.6 152.267 562.933 149.2 563.066 149.467C563.333 149.733 576 171.6 591.2 197.867C613.2 236.133 618.4 246.133 617.066 247.333C616.133 248.133 608.533 254.4 600.4 261.2C581.2 276.933 573.466 285.733 566.8 299.2C559.333 314 556.933 324.4 556.933 341.333C556.933 358.267 559.333 368.667 566.8 383.467C573.466 396.933 581.2 405.733 600.4 421.467C608.533 428.267 616.133 434.533 617.066 435.333C618.4 436.533 613.066 446.667 591.2 484.8C576 511.067 563.333 532.933 563.066 533.2C562.933 533.467 553.6 530.4 542.4 526.267C517.866 517.333 514.266 516.4 501.333 515.333C476.666 513.333 449.2 523.6 430.4 541.733C413.733 558.133 406.933 572.8 401.333 605.733C399.066 618.4 397.333 628.8 397.333 628.933C397.333 629.2 372.133 629.333 341.333 629.333C310.533 629.333 285.333 629.2 285.333 628.933C285.333 628.8 283.6 618.4 281.333 605.733C275.733 572.8 269.2 558.667 252.4 542C233.733 523.6 206.133 513.333 181.333 515.333C168.4 516.4 164.8 517.333 140.266 526.267C129.066 530.4 119.733 533.467 119.6 533.2C115.466 528 64.2663 436.667 64.9329 436C65.4663 435.467 73.1996 429.067 81.9996 421.733C100.666 406.267 107.733 398.667 114.4 386.667C122.4 372.4 125.6 359.2 125.6 341.333C125.6 323.467 122.4 310.267 114.4 296C107.733 284 100.666 276.4 81.9996 260.933C73.1996 253.6 65.4663 247.2 64.9329 246.667C64.2663 246 115.466 154.667 119.6 149.467C119.733 149.2 129.066 152.267 140.266 156.4C167.866 166.533 170.533 167.067 186.666 167.2C203.333 167.2 213.6 164.8 228.666 157.333C240.8 151.333 250 144.267 258.933 133.733C271.066 119.333 276.8 104.933 281.333 77.3334C282.8 68.1334 284.4 59.0668 284.8 56.9334L285.6 53.3334H341.466C372.133 53.3334 397.333 53.4668 397.333 53.6001Z" fill="#F5F5F5"/>
<path d="M324.666 210.8C306 213.2 284.133 221.6 266.8 233.067C257.066 239.467 239.333 257.333 232.666 267.333C202.266 313.467 202.266 369.2 232.666 415.333C239.333 425.333 257.066 443.2 266.8 449.6C317.6 483.067 379.866 480.133 425.6 442.133C465.733 408.933 482.533 352.667 467.066 303.333C452.266 255.867 413.333 220.933 365.6 212C354.666 210 334.933 209.333 324.666 210.8ZM364.666 266.8C388 274 408.533 294.667 416.266 318.667C420.133 330.8 420.133 351.867 416.266 364C408.4 388.267 388.266 408.4 364 416.133C351.733 420.133 332 420.133 319.333 416.267C294.666 408.667 274.266 388.533 266.4 364C262.533 351.867 262.533 330.8 266.533 318.667C275.733 289.733 302.4 267.333 332 263.6C339.866 262.533 356.266 264.133 364.666 266.8Z" fill="#F5F5F5"/>
</g>
<defs>
<clipPath id="clip0_408_16">
<rect width="682.667" height="682.667" fill="white"/>
</clipPath>
</defs>
</svg>
