<svg width="40" height="40" viewBox="0 0 40 40" fill="none" xmlns="http://www.w3.org/2000/svg">
<g clip-path="url(#clip0_1_12)">
<path d="M17.0548 -0.860306C16.1748 -0.611145 15.3351 0.0246506 14.8669 0.806507C14.4794 1.4423 14.3018 2.03514 14.2291 2.88573C14.1565 3.70195 14.0515 3.94253 13.6236 4.27761C13.2684 4.56114 12.6225 4.51818 12.2512 4.19169C11.355 3.42702 11.1532 3.28096 10.7495 3.11771C9.75653 2.72248 8.65857 2.76545 7.69785 3.25518C7.17309 3.52153 6.92282 3.73632 5.80871 4.9134C5.09826 5.6523 4.40396 6.45993 4.25057 6.7005C3.83883 7.36208 3.64507 8.0666 3.64507 8.92579C3.64507 10.0685 3.91957 10.7988 4.71882 11.7955C5.2678 12.4742 5.31624 13.0585 4.88028 13.6083C4.58965 13.9778 4.28286 14.1238 3.79039 14.1238C2.8216 14.1238 1.86089 14.562 1.14237 15.3267C0.633751 15.868 0.31082 16.4522 0.133209 17.1739C-0.0444029 17.8957 -0.0444029 21.3496 0.133209 22.0713C0.569165 23.8326 2.11116 25.1214 3.79039 25.1214C4.28286 25.1214 4.58965 25.2675 4.88028 25.6369C5.32431 26.1954 5.25973 26.7796 4.70267 27.467C4.49277 27.7247 4.23442 28.0684 4.13754 28.2402C3.41902 29.486 3.45939 31.2817 4.25057 32.5447C4.40396 32.7853 5.09826 33.5929 5.80871 34.3318C6.94704 35.5261 7.16501 35.7237 7.73014 36.0072C8.35986 36.3251 8.38408 36.3337 9.33672 36.3337C10.2813 36.3337 10.3217 36.3251 10.911 36.0244C11.242 35.8526 11.7264 35.5175 11.9847 35.2769C12.6468 34.6497 13.2038 34.581 13.7528 35.0707C14.0676 35.3543 14.221 35.7409 14.221 36.2736C14.221 37.2531 14.6489 38.3013 15.3432 39.0488C15.8518 39.59 16.4008 39.9165 17.1032 40.1141C17.6522 40.2688 20.7927 40.2946 21.495 40.1571C23.037 39.8478 24.2965 38.4215 24.4902 36.7461C24.5306 36.3767 24.5871 35.9471 24.6032 35.7924C24.6598 35.4144 25.0634 34.9419 25.4429 34.8216C25.903 34.6755 26.2502 34.7872 26.7427 35.234C27.7437 36.1447 28.4138 36.4111 29.6006 36.3595C30.3353 36.3337 30.4644 36.2994 31.0538 36.0072C31.6431 35.7065 31.8288 35.5433 33.0882 34.203C34.3477 32.8626 34.5011 32.665 34.7836 32.0378C35.0581 31.4106 35.0904 31.2731 35.1146 30.4913C35.1631 29.2283 34.9128 28.5152 34.057 27.4498C33.508 26.771 33.4596 26.1782 33.8956 25.6283C34.1781 25.276 34.493 25.1214 34.9128 25.1214C36.7293 25.1214 38.3601 23.7123 38.683 21.8651C38.788 21.2637 38.788 17.9816 38.683 17.3802C38.3681 15.5845 36.7293 14.1238 35.0339 14.1238C34.5334 14.1238 34.1701 13.9606 33.9036 13.6255C33.4515 13.0499 33.508 12.4656 34.0812 11.7697C34.8482 10.8418 35.155 10.017 35.1469 8.89142C35.1469 8.10957 34.9209 7.3363 34.5253 6.7005C34.3719 6.45993 33.6776 5.6523 32.9671 4.9134C31.8288 3.71914 31.6108 3.52153 31.0457 3.238C30.416 2.9201 30.3918 2.91151 29.4391 2.91151C28.4946 2.91151 28.4542 2.9201 27.8648 3.22081C27.5338 3.39265 27.0737 3.71055 26.8476 3.92534C26.2017 4.54395 25.6931 4.66424 25.2007 4.30338C24.7405 3.9683 24.6275 3.72773 24.5467 2.90292C24.4579 1.95781 24.3126 1.47667 23.917 0.832283C23.3923 -0.0269012 22.6414 -0.602551 21.6727 -0.8689C21.0268 -1.04933 17.6845 -1.04074 17.0548 -0.860306ZM21.3255 1.92345C21.7211 2.13824 21.9714 2.61938 21.9714 3.16067C21.9714 4.14014 22.3912 5.24849 23.0209 5.95301C24.4579 7.55109 26.775 7.66279 28.3089 6.19359C28.5349 5.98738 28.8013 5.77259 28.8982 5.71244C29.1404 5.57497 29.7298 5.57497 29.98 5.71244C30.2222 5.84991 32.0145 7.71434 32.3132 8.14393C32.4989 8.41028 32.5473 8.57352 32.5473 8.90001C32.5473 9.40693 32.4747 9.57018 32.0064 10.1115C30.8762 11.4088 30.7228 13.4709 31.6431 15.0174C32.2809 16.1 33.613 16.8732 34.8563 16.8732C35.3649 16.8732 35.817 17.1396 36.0188 17.5606C36.1641 17.8613 36.1803 18.0589 36.1803 19.6226C36.1803 21.1863 36.1641 21.3839 36.0188 21.6847C35.817 22.1057 35.3649 22.372 34.8563 22.372C33.613 22.372 32.2809 23.1453 31.6431 24.2278C30.7228 25.783 30.8762 27.8364 32.0145 29.151C32.4747 29.6751 32.5473 29.8383 32.5473 30.3366C32.5473 30.8607 32.4827 30.9552 31.3848 32.1581C30.1899 33.4555 29.9639 33.6273 29.4633 33.6273C28.987 33.6273 28.8336 33.55 28.3412 33.0602C27.106 31.8488 25.1764 31.6856 23.7152 32.665C22.698 33.3438 21.9714 34.7614 21.9714 36.0846C21.9714 36.6259 21.7211 37.107 21.3255 37.3218C21.0429 37.4764 20.8573 37.4936 19.3879 37.4936C17.9186 37.4936 17.7329 37.4764 17.4503 37.3218C17.0467 37.107 16.8045 36.6259 16.8045 36.0588C16.8045 35.8354 16.748 35.3972 16.6834 35.0965C16.2071 32.9486 14.0838 31.5739 12.0978 32.1237C11.46 32.3042 10.8787 32.6307 10.4347 33.0602C9.94221 33.55 9.78882 33.6273 9.3125 33.6273C8.81196 33.6273 8.58591 33.4555 7.39107 32.1581C6.2931 30.9552 6.22852 30.8607 6.22852 30.3366C6.22852 29.8383 6.30118 29.6751 6.76942 29.1338C7.21345 28.6269 7.5606 27.8536 7.68978 27.0803C8.09344 24.6746 6.24466 22.372 3.91957 22.372C3.41095 22.372 2.95885 22.1057 2.75702 21.6847C2.6117 21.3839 2.59555 21.1863 2.59555 19.614C2.59555 18.1964 2.61977 17.8355 2.72472 17.5949C2.9427 17.1138 3.24949 16.942 4.04066 16.8646C5.41312 16.7272 6.34154 16.2031 7.0197 15.1635C8.06115 13.574 7.95619 11.469 6.76135 10.0943C6.30118 9.57018 6.22852 9.40693 6.22852 8.90001C6.22852 8.57352 6.27696 8.41028 6.46264 8.14393C6.76135 7.71434 8.55361 5.84991 8.79581 5.71244C9.04608 5.57497 9.63543 5.57497 9.87763 5.71244C9.97451 5.764 10.2329 5.98738 10.4508 6.19359C11.2339 6.96685 12.4449 7.36208 13.5106 7.18165C14.2291 7.06995 15.1333 6.606 15.6177 6.09908C16.3443 5.35159 16.6915 4.52677 16.7964 3.29814C16.8691 2.44755 17.0225 2.12965 17.4665 1.89767C17.6845 1.77739 18.0316 1.75161 19.3718 1.75161C20.8573 1.75161 21.0349 1.7688 21.3255 1.92345Z" fill="black"/>
<path d="M17.9348 10.1287C15.7066 10.5067 13.5591 11.8814 12.1947 13.7974C8.19041 19.4594 11.0403 27.5271 17.5715 29.0393C18.9924 29.3658 20.7524 29.2627 22.2056 28.7558C23.6023 28.2746 25.1846 27.1749 26.113 26.0407C29.197 22.2775 29.197 16.9678 26.113 13.2045C25.4268 12.3625 24.4661 11.5979 23.3843 11.0308C21.6243 10.1029 19.8401 9.81077 17.9348 10.1287ZM20.9219 12.9468C22.6012 13.4365 23.8929 14.416 24.7971 15.8938C26.444 18.5744 26.0969 22.1486 23.9736 24.4341C21.0673 27.5615 16.2395 27.0374 13.9789 23.3429C13.2604 22.1744 12.9698 21.1176 12.9698 19.6226C12.9698 18.1277 13.2604 17.0709 13.9709 15.911C14.9316 14.3473 16.4251 13.2647 18.177 12.8695C18.8229 12.7234 20.2922 12.7664 20.9219 12.9468Z" fill="black"/>
</g>
<defs>
<clipPath id="clip0_1_12">
<rect width="40" height="40" fill="white"/>
</clipPath>
</defs>
</svg>
