<svg width="683" height="683" viewBox="0 0 683 683" fill="none" xmlns="http://www.w3.org/2000/svg">
<g clip-path="url(#clip0_407_5)">
<path d="M344.667 1.33298C336.267 3.06632 328 6.39965 321.334 10.6663C318 12.7996 252 77.9996 174.534 155.6C22.6668 307.733 29.6002 300.133 24.6669 319.333C20.8002 334.4 22.5335 349.333 30.0002 365.066C33.8669 373.333 37.6002 377.866 51.8669 392.4L69.0669 410L68.4002 421.333C67.6002 434.533 69.7335 444.8 76.1335 457.6C79.7335 465.066 92.0002 477.733 182.4 568.266C294.134 679.866 289.734 676 310.267 680.8C326.667 684.666 347.067 681.2 361.2 672C364.534 669.866 430.667 604.666 508.134 527.066C660 374.933 653.067 382.533 658 363.333C660.934 351.6 660.934 155.6 658 142.8C653.6 124.4 640.4 107.333 623.6 98.6663L614.667 93.9996V77.333C614.667 67.1996 613.867 57.333 612.667 52.133C606.934 27.733 586.934 7.73298 562.534 1.99965C555.334 0.39965 538.667 -0.000349953 452 0.132983C395.867 0.266317 347.6 0.79965 344.667 1.33298ZM557.334 48.3996C566.534 53.1996 569.334 59.8663 569.334 76.933V90.6663H482.667C424.667 90.6663 393.867 91.1996 389.067 92.133C385.2 92.933 378.134 95.4663 373.334 97.5996C365.2 101.333 355.6 110.666 229.734 236.4L94.6669 371.333L83.8669 360.666C68.8002 345.733 65.4669 337.866 69.3335 327.066C71.2002 322.4 343.2 49.733 348.667 47.1996C351.867 45.733 371.067 45.4663 452.134 45.333H551.6L557.334 48.3996ZM602.667 139.066C606.667 141.2 609.467 144 611.6 148L614.667 153.733V252.8C614.667 318.4 614.134 353.066 613.334 355.6C611.467 360.666 339.334 633.066 333.734 635.466C328 638 320.8 637.866 315.6 635.2C309.734 632.266 119.067 441.866 115.867 435.733C113.067 430.266 112.667 423.466 114.667 417.733C116.534 413.066 388.534 140.4 394 137.866C397.2 136.4 416.4 136.133 497.467 136H596.934L602.667 139.066Z" fill="#F5F5F5"/>
<path d="M484.8 183.467C463.467 188.667 444.667 206 437.334 227.334C423.6 267.334 450.267 310 492.934 316.267C502.267 317.6 505.334 317.467 514.267 315.6C529.334 312.267 537.867 307.6 548.8 296.8C570.534 275.067 575.334 246.267 561.867 218.8C548 190.667 516 175.867 484.8 183.467ZM512.667 229.734C526.267 237.467 527.734 255.6 515.6 266.267C504 276.4 486.267 271.467 480.534 256.534C473.2 237.334 494.667 219.467 512.667 229.734Z" fill="#F5F5F5"/>
</g>
<defs>
<clipPath id="clip0_407_5">
<rect width="682.667" height="682.667" fill="white"/>
</clipPath>
</defs>
</svg>
