<?xml version="1.0" standalone="no"?>
<!DOCTYPE svg PUBLIC "-//W3C//DTD SVG 20010904//EN"
 "http://www.w3.org/TR/2001/REC-SVG-20010904/DTD/svg10.dtd">
<svg version="1.0" xmlns="http://www.w3.org/2000/svg"
 width="512.000000pt" height="512.000000pt" viewBox="0 0 512.000000 512.000000"
 preserveAspectRatio="xMidYMid meet">

<g transform="translate(0.000000,512.000000) scale(0.100000,-0.100000)"
fill="#000000" stroke="none">
<path d="M2585 5110 c-63 -13 -125 -38 -175 -70 -25 -16 -520 -505 -1101
-1087 -1139 -1141 -1087 -1084 -1124 -1228 -29 -113 -16 -225 40 -343 29 -62
57 -96 164 -205 l129 -132 -5 -85 c-6 -99 10 -176 58 -272 27 -56 119 -151
797 -830 838 -837 805 -808 959 -844 123 -29 276 -3 382 66 25 16 521 505
1102 1087 1139 1141 1087 1084 1124 1228 22 88 22 1558 0 1654 -33 138 -132
266 -258 331 l-67 35 0 125 c0 76 -6 150 -15 189 -43 183 -193 333 -376 376
-54 12 -179 15 -829 14 -421 -1 -783 -5 -805 -9z m1595 -353 c69 -36 90 -86
90 -214 l0 -103 -650 0 c-435 0 -666 -4 -702 -11 -29 -6 -82 -25 -118 -41 -61
-28 -133 -98 -1077 -1041 l-1013 -1012 -81 80 c-113 112 -138 171 -109 252 14
35 2054 2080 2095 2099 24 11 168 13 776 14 l746 0 43 -23z m340 -680 c30 -16
51 -37 67 -67 l23 -43 0 -743 c0 -492 -4 -752 -10 -771 -14 -38 -2055 -2081
-2097 -2099 -43 -19 -97 -18 -136 2 -44 22 -1474 1450 -1498 1496 -21 41 -24
92 -9 135 14 35 2054 2080 2095 2099 24 11 168 13 776 14 l746 0 43 -23z"/>
<path d="M3636 3744 c-160 -39 -301 -169 -356 -329 -103 -300 97 -620 417
-667 70 -10 93 -9 160 5 113 25 177 60 259 141 163 163 199 379 98 585 -104
211 -344 322 -578 265z m209 -347 c102 -58 113 -194 22 -274 -87 -76 -220 -39
-263 73 -55 144 106 278 241 201z"/>
</g>
</svg>
