<svg width="683" height="683" viewBox="0 0 683 683" fill="none" xmlns="http://www.w3.org/2000/svg">
<g clip-path="url(#clip0_407_2)">
<path d="M324.666 0.799313C322.533 1.06598 316 1.99931 310.133 2.79931C277.333 7.19931 238 25.7326 211.333 49.3326C177.6 79.066 153.733 121.999 146.533 165.999C143.866 181.999 144.266 217.999 147.2 232.666C156.666 280.799 183.866 325.333 220.533 353.066L229.6 359.999L225.866 361.333C209.733 367.466 202.8 370.533 189.066 377.333C129.866 407.066 81.7329 451.999 47.4663 509.333C19.4663 556.266 3.73294 608.666 0.532943 666.666L-0.400391 682.666H26.3996H53.3329V676.133C53.3329 630.933 72.1329 568.533 97.3329 530.133C136.133 470.799 188.133 430.133 251.466 409.466C311.733 389.733 370.933 389.733 431.2 409.466C494.533 430.133 546.533 470.799 585.333 530.133C610.533 568.533 629.333 630.933 629.333 676.133V682.666H656.266H683.066L682.133 666.666C678.933 608.666 663.2 556.266 635.2 509.333C600.933 451.999 552.8 407.066 493.6 377.333C479.866 370.533 472.933 367.466 456.8 361.333L453.066 359.999L462.133 353.066C498.8 325.333 526 280.799 535.466 232.666C538.4 217.999 538.8 181.999 536.133 165.999C530.4 130.933 512.666 93.7327 489.2 67.066C460 34.1326 418.933 10.9326 376.133 3.19931C365.866 1.33265 331.866 -0.267353 324.666 0.799313ZM363.866 55.3326C442.266 68.1327 495.866 141.999 483.333 219.866C470.533 298.266 396.666 351.866 318.8 339.333C240.4 326.533 186.8 252.666 199.333 174.799C212.133 96.3993 286 42.7993 363.866 55.3326Z" fill="#F5F5F5"/>
</g>
<defs>
<clipPath id="clip0_407_2">
<rect width="682.667" height="682.667" fill="white"/>
</clipPath>
</defs>
</svg>
