<svg width="200" height="140" viewBox="0 0 200 140" fill="none" xmlns="http://www.w3.org/2000/svg">
<rect x="1" y="1" width="198" height="138" rx="14" fill="#D9D9D9" stroke="#616161" stroke-width="2"/>
<path d="M16 20C16 12.268 22.268 6 30 6H170C177.732 6 184 12.268 184 20V90C184 97.732 177.732 104 170 104H30C22.268 104 16 97.732 16 90V20Z" fill="white" stroke="#616161" stroke-width="2"/>
<path d="M16 30C16 22.268 22.268 16 30 16H170C177.732 16 184 22.268 184 30V100C184 107.732 177.732 114 170 114H30C22.268 114 16 107.732 16 100V30Z" fill="white" stroke="#616161" stroke-width="2"/>
<path d="M16 40C16 32.268 22.268 26 30 26H170C177.732 26 184 32.268 184 40V110C184 117.732 177.732 124 170 124H30C22.268 124 16 117.732 16 110V40Z" fill="white" stroke="#616161" stroke-width="2"/>
<path d="M16 50C16 42.268 22.268 36 30 36H170C177.732 36 184 42.268 184 50V120C184 127.732 177.732 134 170 134H30C22.268 134 16 127.732 16 120V50Z" fill="white" stroke="#616161" stroke-width="2"/>
<path d="M49.8693 103V73.9091H60.7784C63.0133 73.9091 64.8883 74.3258 66.4034 75.1591C67.928 75.9924 69.0786 77.1383 69.8551 78.5966C70.6411 80.0455 71.0341 81.6932 71.0341 83.5398C71.0341 85.4053 70.6411 87.0625 69.8551 88.5114C69.0691 89.9602 67.9091 91.1013 66.375 91.9347C64.8409 92.7585 62.9517 93.1705 60.7074 93.1705H53.4773V88.8381H59.9972C61.304 88.8381 62.3741 88.6108 63.2074 88.1562C64.0407 87.7017 64.6563 87.0767 65.054 86.2812C65.4612 85.4858 65.6648 84.572 65.6648 83.5398C65.6648 82.5076 65.4612 81.5985 65.054 80.8125C64.6563 80.0265 64.036 79.4157 63.1932 78.9801C62.3598 78.535 61.285 78.3125 59.9688 78.3125H55.1392V103H49.8693ZM75.6115 103V73.9091H86.5206C88.7554 73.9091 90.6304 74.3258 92.1456 75.1591C93.6702 75.9924 94.8208 77.1383 95.5973 78.5966C96.3833 80.0455 96.7763 81.6932 96.7763 83.5398C96.7763 85.4053 96.3833 87.0625 95.5973 88.5114C94.8113 89.9602 93.6513 91.1013 92.1172 91.9347C90.5831 92.7585 88.6939 93.1705 86.4496 93.1705H79.2195V88.8381H85.7393C87.0462 88.8381 88.1162 88.6108 88.9496 88.1562C89.7829 87.7017 90.3984 87.0767 90.7962 86.2812C91.2034 85.4858 91.407 84.572 91.407 83.5398C91.407 82.5076 91.2034 81.5985 90.7962 80.8125C90.3984 80.0265 89.7782 79.4157 88.9354 78.9801C88.102 78.535 87.0272 78.3125 85.7109 78.3125H80.8814V103H75.6115ZM100.075 78.3267V73.9091H123.286V78.3267H114.294V103H109.067V78.3267H100.075ZM132.163 73.9091L138.57 84.5625H138.797L145.232 73.9091H151.24L142.277 88.4545L151.382 103H145.274L138.797 92.4176H138.57L132.092 103H126.013L135.203 88.4545L126.126 73.9091H132.163Z" fill="#616161"/>
</svg>
