<svg width="208" height="148" viewBox="0 0 208 148" fill="none" xmlns="http://www.w3.org/2000/svg">
<path d="M5 15C5 7.26801 11.268 1 19 1H189C196.732 1 203 7.26801 203 15V125C203 132.732 196.732 139 189 139H19C11.268 139 5 132.732 5 125V15Z" fill="#ADADAD" stroke="#616161" stroke-width="2"/>
<path d="M14 32.0993C14 24.3673 20.268 18.0992 28 18.0992H180C187.732 18.0992 194 24.3673 194 32.0992V119.656C194 127.388 187.732 133.656 180 133.656H28C20.268 133.656 14 127.388 14 119.656V32.0993Z" fill="white" stroke="white" stroke-width="2"/>
<g filter="url(#filter0_d_101_35)">
<path d="M4 35.2672H189C197.284 35.2672 204 41.9829 204 50.2672V125C204 133.284 197.284 140 189 140H19C10.7157 140 4 133.284 4 125V35.2672Z" fill="#D9D9D9"/>
<path d="M5 36.2672H189C196.732 36.2672 203 42.5352 203 50.2672V125C203 132.732 196.732 139 189 139H19C11.268 139 5 132.732 5 125V36.2672Z" stroke="#616161" stroke-width="2"/>
</g>
<path d="M49.8693 103V73.9091H60.7784C63.0133 73.9091 64.8883 74.2973 66.4034 75.0739C67.928 75.8504 69.0786 76.9394 69.8551 78.3409C70.6411 79.733 71.0341 81.357 71.0341 83.2131C71.0341 85.0786 70.6364 86.6979 69.8409 88.071C69.0549 89.4347 67.8949 90.4905 66.3608 91.2386C64.8267 91.9773 62.9422 92.3466 60.7074 92.3466H52.9375V87.9716H59.9972C61.304 87.9716 62.3741 87.7917 63.2074 87.4318C64.0407 87.0625 64.6563 86.5275 65.054 85.8267C65.4612 85.1165 65.6648 84.2453 65.6648 83.2131C65.6648 82.1809 65.4612 81.3002 65.054 80.571C64.6468 79.8324 64.0265 79.2737 63.1932 78.8949C62.3598 78.5066 61.285 78.3125 59.9688 78.3125H55.1392V103H49.8693ZM64.8977 89.8182L72.0994 103H66.2188L59.1449 89.8182H64.8977ZM101.879 88.4545C101.879 91.589 101.292 94.2737 100.118 96.5085C98.9531 98.7339 97.3622 100.438 95.3452 101.622C93.3376 102.806 91.0601 103.398 88.5128 103.398C85.9654 103.398 83.6832 102.806 81.6662 101.622C79.6586 100.429 78.0677 98.7197 76.8935 96.4943C75.7287 94.2595 75.1463 91.5795 75.1463 88.4545C75.1463 85.3201 75.7287 82.6402 76.8935 80.4148C78.0677 78.1799 79.6586 76.4706 81.6662 75.2869C83.6832 74.1032 85.9654 73.5114 88.5128 73.5114C91.0601 73.5114 93.3376 74.1032 95.3452 75.2869C97.3622 76.4706 98.9531 78.1799 100.118 80.4148C101.292 82.6402 101.879 85.3201 101.879 88.4545ZM96.581 88.4545C96.581 86.2481 96.2353 84.3873 95.544 82.8722C94.8622 81.3475 93.9152 80.197 92.7031 79.4205C91.491 78.6345 90.0942 78.2415 88.5128 78.2415C86.9313 78.2415 85.5346 78.6345 84.3224 79.4205C83.1103 80.197 82.1586 81.3475 81.4673 82.8722C80.7855 84.3873 80.4446 86.2481 80.4446 88.4545C80.4446 90.661 80.7855 92.5265 81.4673 94.0511C82.1586 95.5663 83.1103 96.7169 84.3224 97.5028C85.5346 98.2794 86.9313 98.6676 88.5128 98.6676C90.0942 98.6676 91.491 98.2794 92.7031 97.5028C93.9152 96.7169 94.8622 95.5663 95.544 94.0511C96.2353 92.5265 96.581 90.661 96.581 88.4545ZM132.856 88.4545C132.856 91.589 132.269 94.2737 131.094 96.5085C129.93 98.7339 128.339 100.438 126.322 101.622C124.314 102.806 122.037 103.398 119.489 103.398C116.942 103.398 114.66 102.806 112.643 101.622C110.635 100.429 109.044 98.7197 107.87 96.4943C106.705 94.2595 106.123 91.5795 106.123 88.4545C106.123 85.3201 106.705 82.6402 107.87 80.4148C109.044 78.1799 110.635 76.4706 112.643 75.2869C114.66 74.1032 116.942 73.5114 119.489 73.5114C122.037 73.5114 124.314 74.1032 126.322 75.2869C128.339 76.4706 129.93 78.1799 131.094 80.4148C132.269 82.6402 132.856 85.3201 132.856 88.4545ZM127.558 88.4545C127.558 86.2481 127.212 84.3873 126.521 82.8722C125.839 81.3475 124.892 80.197 123.68 79.4205C122.468 78.6345 121.071 78.2415 119.489 78.2415C117.908 78.2415 116.511 78.6345 115.299 79.4205C114.087 80.197 113.135 81.3475 112.444 82.8722C111.762 84.3873 111.421 86.2481 111.421 88.4545C111.421 90.661 111.762 92.5265 112.444 94.0511C113.135 95.5663 114.087 96.7169 115.299 97.5028C116.511 98.2794 117.908 98.6676 119.489 98.6676C121.071 98.6676 122.468 98.2794 123.68 97.5028C124.892 96.7169 125.839 95.5663 126.521 94.0511C127.212 92.5265 127.558 90.661 127.558 88.4545ZM135.271 78.3267V73.9091H158.481V78.3267H149.489V103H144.262V78.3267H135.271Z" fill="#616161"/>
<defs>
<filter id="filter0_d_101_35" x="0" y="35.2672" width="208" height="112.733" filterUnits="userSpaceOnUse" color-interpolation-filters="sRGB">
<feFlood flood-opacity="0" result="BackgroundImageFix"/>
<feColorMatrix in="SourceAlpha" type="matrix" values="0 0 0 0 0 0 0 0 0 0 0 0 0 0 0 0 0 0 127 0" result="hardAlpha"/>
<feOffset dy="4"/>
<feGaussianBlur stdDeviation="2"/>
<feComposite in2="hardAlpha" operator="out"/>
<feColorMatrix type="matrix" values="0 0 0 0 0 0 0 0 0 0 0 0 0 0 0 0 0 0 0.25 0"/>
<feBlend mode="normal" in2="BackgroundImageFix" result="effect1_dropShadow_101_35"/>
<feBlend mode="normal" in="SourceGraphic" in2="effect1_dropShadow_101_35" result="shape"/>
</filter>
</defs>
</svg>
