<svg width="549" height="278" viewBox="0 0 549 278" fill="none" xmlns="http://www.w3.org/2000/svg">
<g filter="url(#filter0_d_105_59)">
<path d="M5.09091 121.045V106.909H79.3636V121.045H50.5909V200H33.8636V121.045H5.09091ZM94.3864 200H76.3864L109.159 106.909H129.977L162.795 200H144.795L119.932 126H119.205L94.3864 200ZM94.9773 163.5H144.068V177.045H94.9773V163.5ZM233.045 136.636C232.288 134.182 231.242 131.985 229.909 130.045C228.606 128.076 227.03 126.394 225.182 125C223.364 123.606 221.273 122.561 218.909 121.864C216.545 121.136 213.97 120.773 211.182 120.773C206.182 120.773 201.727 122.03 197.818 124.545C193.909 127.061 190.833 130.758 188.591 135.636C186.379 140.485 185.273 146.394 185.273 153.364C185.273 160.394 186.379 166.348 188.591 171.227C190.803 176.106 193.879 179.818 197.818 182.364C201.758 184.879 206.333 186.136 211.545 186.136C216.273 186.136 220.364 185.227 223.818 183.409C227.303 181.591 229.985 179.015 231.864 175.682C233.742 172.318 234.682 168.379 234.682 163.864L238.5 164.455H213.227V151.273H251V162.455C251 170.424 249.303 177.318 245.909 183.136C242.515 188.955 237.848 193.439 231.909 196.591C225.97 199.712 219.152 201.273 211.455 201.273C202.879 201.273 195.348 199.348 188.864 195.5C182.409 191.621 177.364 186.121 173.727 179C170.121 171.848 168.318 163.364 168.318 153.545C168.318 146.03 169.379 139.318 171.5 133.409C173.652 127.5 176.652 122.485 180.5 118.364C184.348 114.212 188.864 111.061 194.045 108.909C199.227 106.727 204.864 105.636 210.955 105.636C216.106 105.636 220.909 106.394 225.364 107.909C229.818 109.394 233.773 111.515 237.227 114.273C240.712 117.03 243.576 120.303 245.818 124.091C248.061 127.879 249.53 132.061 250.227 136.636H233.045Z" fill="white"/>
</g>
<rect x="371.355" y="72.0711" width="240" height="40" rx="20" transform="rotate(45 371.355 72.0711)" fill="#616161" stroke="white" stroke-width="10"/>
<rect x="371.355" y="72.0711" width="210" height="40" rx="15" transform="rotate(45 371.355 72.0711)" fill="#616161" stroke="white" stroke-width="10"/>
<circle cx="371" cy="100" r="100" fill="white"/>
<circle cx="371" cy="100" r="90" fill="#616161"/>
<circle cx="371" cy="100" r="80" fill="white"/>
<circle cx="371" cy="100" r="70" fill="#616161"/>
<circle cx="401" cy="70" r="10" fill="white"/>
<defs>
<filter id="filter0_d_105_59" x="1.09091" y="105.636" width="253.909" height="103.636" filterUnits="userSpaceOnUse" color-interpolation-filters="sRGB">
<feFlood flood-opacity="0" result="BackgroundImageFix"/>
<feColorMatrix in="SourceAlpha" type="matrix" values="0 0 0 0 0 0 0 0 0 0 0 0 0 0 0 0 0 0 127 0" result="hardAlpha"/>
<feOffset dy="4"/>
<feGaussianBlur stdDeviation="2"/>
<feComposite in2="hardAlpha" operator="out"/>
<feColorMatrix type="matrix" values="0 0 0 0 0 0 0 0 0 0 0 0 0 0 0 0 0 0 0.25 0"/>
<feBlend mode="normal" in2="BackgroundImageFix" result="effect1_dropShadow_105_59"/>
<feBlend mode="normal" in="SourceGraphic" in2="effect1_dropShadow_105_59" result="shape"/>
</filter>
</defs>
</svg>
