<svg width="278" height="285" viewBox="0 0 278 285" fill="none" xmlns="http://www.w3.org/2000/svg">
<rect x="100.355" y="72.0711" width="240" height="40" rx="20" transform="rotate(45 100.355 72.0711)" fill="white" stroke="#616161" stroke-width="10"/>
<rect x="100.355" y="72.0711" width="210" height="40" rx="15" transform="rotate(45 100.355 72.0711)" fill="white" stroke="#616161" stroke-width="10"/>
<circle cx="100" cy="100" r="100" fill="#616161"/>
<circle cx="100" cy="100" r="90" fill="white"/>
<circle cx="100" cy="100" r="80" fill="#616161"/>
<circle cx="100" cy="100" r="70" fill="white"/>
<circle cx="130" cy="70" r="10" fill="#616161"/>
<path d="M67.6896 229.818V236.778H45.7401V229.818H67.6896ZM51.1591 220.67H60.1577V256.516C60.1577 257.725 60.34 258.653 60.7045 259.3C61.0857 259.929 61.5829 260.36 62.196 260.592C62.8092 260.824 63.4886 260.94 64.2344 260.94C64.7978 260.94 65.3116 260.899 65.7756 260.816C66.2562 260.733 66.6207 260.659 66.8693 260.592L68.3857 267.627C67.9051 267.793 67.2173 267.975 66.3224 268.174C65.4441 268.373 64.367 268.489 63.0909 268.522C60.8371 268.588 58.8071 268.249 57.0007 267.503C55.1944 266.741 53.7609 265.564 52.7003 263.973C51.6563 262.382 51.1425 260.393 51.1591 258.007V220.67ZM86.2026 268.771C83.7831 268.771 81.6039 268.34 79.665 267.478C77.7426 266.6 76.218 265.307 75.0911 263.6C73.9808 261.893 73.4256 259.789 73.4256 257.286C73.4256 255.132 73.8233 253.35 74.6188 251.942C75.4142 250.533 76.4997 249.406 77.8752 248.561C79.2507 247.716 80.8001 247.078 82.5236 246.647C84.2637 246.2 86.0617 245.876 87.9178 245.678C90.155 245.446 91.9696 245.238 93.3617 245.056C94.7537 244.857 95.7646 244.559 96.3944 244.161C97.0407 243.747 97.3638 243.109 97.3638 242.247V242.098C97.3638 240.225 96.8087 238.775 95.6983 237.748C94.588 236.72 92.9888 236.207 90.9007 236.207C88.6967 236.207 86.9483 236.687 85.6557 237.648C84.3797 238.61 83.5179 239.745 83.0705 241.054L74.6685 239.861C75.3314 237.541 76.4251 235.602 77.9498 234.044C79.4744 232.47 81.3387 231.293 83.5428 230.514C85.7469 229.719 88.1829 229.321 90.851 229.321C92.6905 229.321 94.5217 229.536 96.3446 229.967C98.1676 230.398 99.833 231.111 101.341 232.105C102.849 233.083 104.059 234.417 104.97 236.107C105.898 237.798 106.362 239.911 106.362 242.446V268H97.7118V262.755H97.4135C96.8667 263.816 96.0961 264.81 95.1017 265.738C94.124 266.649 92.8894 267.387 91.3979 267.95C89.923 268.497 88.1912 268.771 86.2026 268.771ZM88.5392 262.158C90.3456 262.158 91.9116 261.802 93.2374 261.089C94.5632 260.36 95.5823 259.399 96.2949 258.206C97.0241 257.013 97.3887 255.712 97.3887 254.303V249.804C97.1069 250.036 96.6264 250.251 95.9469 250.45C95.284 250.649 94.5383 250.823 93.7097 250.972C92.8811 251.121 92.0608 251.254 91.2488 251.37C90.4367 251.486 89.7324 251.585 89.1358 251.668C87.7935 251.851 86.592 252.149 85.5314 252.563C84.4708 252.978 83.6339 253.558 83.0208 254.303C82.4076 255.032 82.101 255.977 82.101 257.137C82.101 258.794 82.7059 260.045 83.9157 260.891C85.1254 261.736 86.6666 262.158 88.5392 262.158ZM132.016 283.114C128.784 283.114 126.008 282.674 123.688 281.796C121.368 280.934 119.504 279.774 118.095 278.316C116.687 276.858 115.709 275.242 115.162 273.469L123.266 271.505C123.63 272.251 124.161 272.988 124.857 273.717C125.553 274.463 126.489 275.076 127.666 275.557C128.859 276.054 130.359 276.303 132.165 276.303C134.717 276.303 136.83 275.681 138.504 274.438C140.177 273.212 141.014 271.19 141.014 268.373V261.139H140.567C140.103 262.067 139.423 263.02 138.529 263.998C137.65 264.976 136.482 265.796 135.024 266.459C133.582 267.122 131.767 267.453 129.58 267.453C126.646 267.453 123.987 266.765 121.6 265.39C119.231 263.998 117.341 261.926 115.933 259.175C114.541 256.408 113.845 252.944 113.845 248.785C113.845 244.592 114.541 241.054 115.933 238.17C117.341 235.27 119.239 233.075 121.625 231.583C124.012 230.075 126.671 229.321 129.605 229.321C131.842 229.321 133.681 229.702 135.123 230.464C136.581 231.21 137.741 232.113 138.603 233.174C139.465 234.218 140.119 235.204 140.567 236.132H141.064V229.818H149.938V268.621C149.938 271.886 149.16 274.587 147.602 276.725C146.044 278.863 143.914 280.462 141.213 281.523C138.512 282.583 135.446 283.114 132.016 283.114ZM132.09 260.393C133.996 260.393 135.62 259.929 136.963 259.001C138.305 258.073 139.324 256.739 140.02 254.999C140.716 253.259 141.064 251.171 141.064 248.735C141.064 246.332 140.716 244.228 140.02 242.421C139.341 240.615 138.33 239.214 136.987 238.22C135.662 237.209 134.029 236.704 132.09 236.704C130.085 236.704 128.411 237.226 127.069 238.27C125.727 239.314 124.716 240.747 124.036 242.57C123.357 244.377 123.017 246.432 123.017 248.735C123.017 251.072 123.357 253.118 124.036 254.875C124.732 256.615 125.752 257.974 127.094 258.952C128.453 259.913 130.118 260.393 132.09 260.393Z" fill="#616161"/>
</svg>
