<svg width="278" height="285" viewBox="0 0 278 285" fill="none" xmlns="http://www.w3.org/2000/svg">
<rect x="100.355" y="72.0711" width="240" height="40" rx="20" transform="rotate(45 100.355 72.0711)" fill="white" stroke="#616161" stroke-width="10"/>
<rect x="100.355" y="72.0711" width="210" height="40" rx="15" transform="rotate(45 100.355 72.0711)" fill="white" stroke="#616161" stroke-width="10"/>
<circle cx="100" cy="100" r="100" fill="#616161"/>
<circle cx="100" cy="100" r="90" fill="white"/>
<circle cx="100" cy="100" r="80" fill="#616161"/>
<circle cx="100" cy="100" r="70" fill="white"/>
<circle cx="130" cy="70" r="10" fill="#616161"/>
<path d="M56.6896 229.818V236.778H34.7401V229.818H56.6896ZM40.1591 220.67H49.1577V256.516C49.1577 257.725 49.34 258.653 49.7045 259.3C50.0857 259.929 50.5829 260.36 51.196 260.592C51.8092 260.824 52.4886 260.94 53.2344 260.94C53.7978 260.94 54.3116 260.899 54.7756 260.816C55.2562 260.733 55.6207 260.659 55.8693 260.592L57.3857 267.627C56.9051 267.793 56.2173 267.975 55.3224 268.174C54.4441 268.373 53.367 268.489 52.0909 268.522C49.8371 268.588 47.8071 268.249 46.0007 267.503C44.1944 266.741 42.7609 265.564 41.7003 263.973C40.6563 262.382 40.1425 260.393 40.1591 258.007V220.67ZM80.7086 268.746C76.8805 268.746 73.5744 267.95 70.7903 266.359C68.0228 264.752 65.8933 262.482 64.4018 259.548C62.9103 256.598 62.1646 253.127 62.1646 249.133C62.1646 245.205 62.9103 241.758 64.4018 238.792C65.9099 235.809 68.0145 233.489 70.7157 231.832C73.417 230.158 76.5905 229.321 80.2363 229.321C82.5895 229.321 84.8102 229.702 86.8983 230.464C89.0029 231.21 90.859 232.37 92.4664 233.945C94.0905 235.519 95.3665 237.524 96.2946 239.96C97.2226 242.38 97.6866 245.263 97.6866 248.611V251.37H66.3904V245.305H89.0609C89.0443 243.581 88.6715 242.048 87.9423 240.706C87.2131 239.347 86.194 238.278 84.8848 237.499C83.5922 236.72 82.0841 236.331 80.3606 236.331C78.5211 236.331 76.9054 236.778 75.5133 237.673C74.1213 238.552 73.0358 239.712 72.2569 241.153C71.4946 242.579 71.1052 244.145 71.0886 245.852V251.146C71.0886 253.367 71.4946 255.273 72.3066 256.864C73.1187 258.438 74.2538 259.648 75.7122 260.493C77.1705 261.321 78.8774 261.736 80.8329 261.736C82.1421 261.736 83.327 261.554 84.3876 261.189C85.4482 260.808 86.368 260.253 87.1468 259.523C87.9257 258.794 88.514 257.891 88.9118 256.814L97.3137 257.759C96.7834 259.979 95.7726 261.918 94.2811 263.575C92.8062 265.216 90.917 266.492 88.6135 267.403C86.31 268.298 83.675 268.746 80.7086 268.746ZM111.837 229.818L119.543 243.913L127.373 229.818H136.894L125.385 248.909L137.093 268H127.622L119.543 254.254L111.539 268H101.993L113.627 248.909L102.292 229.818H111.837ZM162.92 229.818V236.778H140.971V229.818H162.92ZM146.39 220.67H155.388V256.516C155.388 257.725 155.57 258.653 155.935 259.3C156.316 259.929 156.813 260.36 157.426 260.592C158.04 260.824 158.719 260.94 159.465 260.94C160.028 260.94 160.542 260.899 161.006 260.816C161.487 260.733 161.851 260.659 162.1 260.592L163.616 267.627C163.136 267.793 162.448 267.975 161.553 268.174C160.675 268.373 159.597 268.489 158.321 268.522C156.068 268.588 154.038 268.249 152.231 267.503C150.425 266.741 148.991 265.564 147.931 263.973C146.887 262.382 146.373 260.393 146.39 258.007V220.67Z" fill="#616161"/>
</svg>
